#!OML:ASF C:\Vicon Data\Big\jianyuan-13\jianyuan\Session 1\Capture.male.ASF
:FULLY-SPECIFIED
:DEGREES
112
root -8.613151 17.357587 -11.879666 6.504472 -5.644060 -1.330844
lowerback -13.060166 5.141682 1.325901 
upperback 1.709211 6.676858 -0.334332 
thorax 9.350129 3.290920 0.302513 
lowerneck 0.391158 -2.718762 2.370083 
upperneck 1.274369 -3.592581 -3.385596 
head 0.217884 -1.796321 -1.438314 
rclavicle 0.000000 0.000000 
rhumerus -12.314744 -0.605329 -91.149544 
rradius 44.232879 
rwrist 15.777692 
rhand -17.158770 -18.839263 
rfingers 0.000000 
rthumb 9.082143 -48.623723 
lclavicle 0.000000 0.000000 
lhumerus -71.708921 38.386240 30.948213 
lradius 23.549558 
lwrist -65.255000 
lhand -20.100164 1.198912 
lfingers 0.000000 
lthumb 6.243128 31.086805 
rfemur 5.686500 6.630031 26.366371 
rtibia 25.758552 
rfoot -23.092465 -0.885137 
rtoes -27.468960 
lfemur -40.287882 -0.407671 -12.813354 
ltibia 17.667402 
lfoot -10.584811 9.922360 
ltoes -40.686625 
113
root -8.588388 17.334420 -11.727275 6.645242 -5.789137 -1.286642
lowerback -13.161806 5.168007 1.290142 
upperback 1.665235 6.720553 -0.386016 
thorax 9.363544 3.310746 0.283759 
lowerneck 0.329674 -2.704908 2.390964 
upperneck 1.251175 -3.575368 -3.429567 
head 0.220363 -1.788230 -1.456704 
rclavicle 0.000000 0.000000 
rhumerus -12.514467 -0.575993 -91.275199 
rradius 44.085754 
rwrist 15.642463 
rhand -17.304131 -18.992535 
rfingers 0.000000 
rthumb 8.941872 -48.783050 
lclavicle 0.000000 0.000000 
lhumerus -72.075803 38.468684 30.553824 
lradius 23.469887 
lwrist -66.503549 
lhand -20.680431 1.613273 
lfingers 0.000000 
lthumb 5.682858 31.517112 
rfemur 5.948447 6.425896 26.100021 
rtibia 25.998940 
rfoot -22.625200 -0.688899 
rtoes -27.917397 
lfemur -39.970197 -0.259719 -13.081730 
ltibia 17.642287 
lfoot -10.458078 9.757643 
ltoes -41.030276 
114
root -8.569762 17.320603 -11.568568 6.721352 -5.882510 -1.260248
lowerback -13.274222 5.127464 1.153754 
upperback 1.652482 6.685343 -0.367529 
thorax 9.394886 3.285130 0.380301 
lowerneck 0.226648 -2.651938 2.355165 
upperneck 1.305709 -3.504665 -3.494473 
head 0.256004 -1.754348 -1.473635 
rclavicle 0.000000 0.000000 
rhumerus -12.703777 -0.597410 -91.341362 
rradius 43.808435 
rwrist 15.927130 
rhand -17.179812 -18.982598 
rfingers 0.000000 
rthumb 9.061803 -48.767892 
lclavicle 0.000000 0.000000 
lhumerus -72.317423 38.536551 30.435618 
lradius 23.506086 
lwrist -66.219547 
lhand -20.428927 1.325738 
lfingers 0.000000 
lthumb 5.925746 31.222869 
rfemur 6.284413 6.531018 25.976490 
rtibia 26.265611 
rfoot -22.183058 -0.778290 
rtoes -28.443140 
lfemur -39.540593 -0.341029 -13.170286 
ltibia 17.595884 
lfoot -10.438722 9.789977 
ltoes -41.164607 
115
root -8.543748 17.306384 -11.409327 6.882452 -5.991737 -1.291546
lowerback -13.395879 5.170955 1.200135 
upperback 1.600254 6.736457 -0.400176 
thorax 9.418129 3.311914 0.339842 
lowerneck 0.183905 -2.645288 2.291003 
upperneck 1.312446 -3.496411 -3.475147 
head 0.266921 -1.750838 -1.457212 
rclavicle 0.000000 0.000000 
rhumerus -12.979503 -0.716131 -91.437165 
rradius 43.661828 
rwrist 15.898780 
rhand -17.108973 -18.926544 
rfingers 0.000000 
rthumb 9.130232 -48.708914 
lclavicle 0.000000 0.000000 
lhumerus -72.375034 38.554058 30.391171 
lradius 23.439037 
lwrist -66.466996 
lhand -20.432107 1.315745 
lfingers 0.000000 
lthumb 5.922629 31.212994 
rfemur 6.522113 6.485686 25.767205 
rtibia 26.507736 
rfoot -21.616528 -0.404724 
rtoes -27.853075 
lfemur -39.161675 -0.339296 -13.299160 
ltibia 17.583463 
lfoot -10.592665 9.786795 
ltoes -41.475912 
116
root -8.520474 17.295272 -11.244793 7.016226 -6.036427 -1.306627
lowerback -13.540020 5.154395 1.153696 
upperback 1.570691 6.721866 -0.422115 
thorax 9.465508 3.301670 0.350759 
lowerneck 0.066290 -2.638716 2.329912 
upperneck 1.349654 -3.488502 -3.514357 
head 0.296970 -1.748031 -1.478833 
rclavicle 0.000000 0.000000 
rhumerus -13.310044 -0.646612 -91.523123 
rradius 43.533666 
rwrist 15.832657 
rhand -17.145427 -18.992561 
rfingers 0.000000 
rthumb 9.094993 -48.776449 
lclavicle 0.000000 0.000000 
lhumerus -72.472186 38.603434 30.343455 
lradius 23.419234 
lwrist -66.458609 
lhand -20.466586 1.356351 
lfingers 0.000000 
lthumb 5.889321 31.254497 
rfemur 6.755410 6.349834 25.491240 
rtibia 26.826310 
rfoot -20.987804 0.253258 
rtoes -26.719259 
lfemur -38.720851 -0.256649 -13.505276 
ltibia 17.488090 
lfoot -10.594850 9.698427 
ltoes -41.101145 
117
root -8.493728 17.284948 -11.077193 7.170340 -6.120900 -1.326001
lowerback -13.676646 5.194663 1.179273 
upperback 1.517472 6.774290 -0.480877 
thorax 9.497114 3.328589 0.295794 
lowerneck 0.104888 -2.635410 2.360573 
upperneck 1.277927 -3.484954 -3.539286 
head 0.267562 -1.745617 -1.490612 
rclavicle 0.000000 0.000000 
rhumerus -13.663068 -0.888178 -91.614371 
rradius 43.377417 
rwrist 16.120866 
rhand -17.083762 -18.912242 
rfingers 0.000000 
rthumb 9.154499 -48.693577 
lclavicle 0.000000 0.000000 
lhumerus -72.479299 38.632311 30.298815 
lradius 23.420357 
lwrist -66.577629 
lhand -20.247750 1.183260 
lfingers 0.000000 
lthumb 6.100601 31.075407 
rfemur 7.012037 6.413265 25.229856 
rtibia 27.109283 
rfoot -20.287282 0.889928 
rtoes -25.227504 
lfemur -38.267115 -0.137056 -13.745317 
ltibia 17.439042 
lfoot -10.718022 9.633291 
ltoes -41.695661 
118
root -8.467165 17.270200 -10.907737 7.376418 -6.158877 -1.404370
lowerback -13.863351 5.215455 1.204218 
upperback 1.459221 6.795803 -0.494196 
thorax 9.545441 3.338716 0.287093 
lowerneck -0.017683 -2.654712 2.410970 
upperneck 1.335758 -3.510796 -3.628062 
head 0.302744 -1.759997 -1.530321 
rclavicle 0.000000 0.000000 
rhumerus -14.068965 -0.886118 -91.664330 
rradius 43.298802 
rwrist 16.081761 
rhand -17.095968 -18.955436 
rfingers 0.000000 
rthumb 9.142751 -48.737234 
lclavicle 0.000000 0.000000 
lhumerus -72.505781 38.655326 30.325190 
lradius 23.410459 
lwrist -66.833775 
lhand -20.260820 1.209894 
lfingers 0.000000 
lthumb 6.088008 31.102398 
rfemur 7.281926 6.437804 25.117709 
rtibia 27.286583 
rfoot -19.548983 0.996812 
rtoes -25.891174 
lfemur -37.946597 -0.098393 -13.864501 
ltibia 17.575617 
lfoot -11.048556 9.595626 
ltoes -41.679704 
119
root -8.438701 17.257876 -10.732601 7.546902 -6.220801 -1.395664
lowerback -14.010566 5.236982 1.150187 
upperback 1.388736 6.833728 -0.525808 
thorax 9.550681 3.353849 0.301442 
lowerneck -0.203354 -2.682027 2.445952 
upperneck 1.470298 -3.546924 -3.680848 
head 0.372802 -1.780313 -1.558025 
rclavicle 0.000000 0.000000 
rhumerus -14.545850 -0.972401 -91.677474 
rradius 43.185203 
rwrist 16.137313 
rhand -17.089369 -18.764037 
rfingers 0.000000 
rthumb 9.149153 -48.545594 
lclavicle 0.000000 0.000000 
lhumerus -72.437726 38.636475 30.457596 
lradius 23.334732 
lwrist -66.844977 
lhand -20.300396 1.172261 
lfingers 0.000000 
lthumb 6.049775 31.065852 
rfemur 7.598718 6.478564 24.877649 
rtibia 27.461135 
rfoot -18.703080 1.194937 
rtoes -26.221670 
lfemur -37.618634 -0.163793 -14.029781 
ltibia 17.852858 
lfoot -11.446608 9.553974 
ltoes -41.399440 
120
root -8.412034 17.245188 -10.555819 7.810927 -6.258348 -1.509009
lowerback -14.232545 5.251835 1.146064 
upperback 1.298171 6.848296 -0.507508 
thorax 9.575683 3.358080 0.342210 
lowerneck -0.298885 -2.680707 2.439041 
upperneck 1.511379 -3.545319 -3.719319 
head 0.401076 -1.780794 -1.571314 
rclavicle 0.000000 0.000000 
rhumerus -15.069708 -0.828883 -91.667534 
rradius 43.115961 
rwrist 16.261584 
rhand -17.074813 -18.919690 
rfingers 0.000000 
rthumb 9.163194 -48.700553 
lclavicle 0.000000 0.000000 
lhumerus -72.409646 38.614146 30.729017 
lradius 23.459276 
lwrist -66.504641 
lhand -20.107579 1.160578 
lfingers 0.000000 
lthumb 6.236000 31.048786 
rfemur 7.794867 6.583534 24.803287 
rtibia 27.658093 
rfoot -17.785865 1.274789 
rtoes -26.680027 
lfemur -37.437026 0.120330 -14.238828 
ltibia 18.219619 
lfoot -11.551289 9.316909 
ltoes -41.171556 
121
root -8.383369 17.245721 -10.378498 8.091951 -6.322633 -1.580864
lowerback -14.389351 5.279192 1.141811 
upperback 1.158796 6.882622 -0.521310 
thorax 9.514070 3.374028 0.344265 
lowerneck -0.415305 -2.670251 2.504113 
upperneck 1.629375 -3.529479 -3.842634 
head 0.454581 -1.774806 -1.625609 
rclavicle 0.000000 0.000000 
rhumerus -15.682373 -1.078179 -91.636082 
rradius 43.043732 
rwrist 16.844899 
rhand -16.771789 -18.658031 
rfingers 0.000000 
rthumb 9.455552 -48.425963 
lclavicle 0.000000 0.000000 
lhumerus -72.261796 38.511631 31.018340 
lradius 23.398371 
lwrist -66.082030 
lhand -20.032144 0.972327 
lfingers 0.000000 
lthumb 6.308766 30.858397 
rfemur 7.920932 6.078274 24.410002 
rtibia 27.775257 
rfoot -16.663063 1.941145 
rtoes -27.704777 
lfemur -37.306220 0.133459 -14.319602 
ltibia 18.701492 
lfoot -11.633862 9.284939 
ltoes -38.809907 
122
root -8.353732 17.248717 -10.200547 8.327304 -6.267790 -1.547983
lowerback -14.510925 5.230493 0.985889 
upperback 1.046318 6.843344 -0.538642 
thorax 9.442598 3.347667 0.407081 
lowerneck -0.514836 -2.636964 2.485451 
upperneck 1.678166 -3.485597 -3.825871 
head 0.488552 -1.754015 -1.619389 
rclavicle 0.000000 0.000000 
rhumerus -16.323848 -0.726097 -91.666398 
rradius 43.081727 
rwrist 16.309097 
rhand -17.027908 -18.827932 
rfingers 0.000000 
rthumb 9.208438 -48.606868 
lclavicle 0.000000 0.000000 
lhumerus -72.317704 38.468945 31.199966 
lradius 23.510980 
lwrist -66.091723 
lhand -20.085237 1.194484 
lfingers 0.000000 
lthumb 6.257570 31.082030 
rfemur 8.207187 5.834007 24.073884 
rtibia 27.725811 
rfoot -15.492992 2.222699 
rtoes -28.339246 
lfemur -37.499268 0.257802 -14.646064 
ltibia 19.429627 
lfoot -10.896744 10.091348 
ltoes -36.275572 
123
root -8.325969 17.264084 -10.021829 8.698479 -6.197775 -1.536198
lowerback -14.714267 5.193847 0.851411 
upperback 0.870329 6.819441 -0.605342 
thorax 9.357457 3.330908 0.413236 
lowerneck -0.562596 -2.639469 2.654144 
upperneck 1.651539 -3.491081 -3.924198 
head 0.483877 -1.756788 -1.680878 
rclavicle 0.000000 0.000000 
rhumerus -16.991639 -0.978255 -91.737321 
rradius 43.091573 
rwrist 16.900401 
rhand -16.949355 -19.021747 
rfingers 0.000000 
rthumb 9.284217 -48.797326 
lclavicle 0.000000 0.000000 
lhumerus -71.939362 38.216556 31.865757 
lradius 23.617389 
lwrist -65.152512 
lhand -19.994674 1.180228 
lfingers 0.000000 
lthumb 6.344959 31.065231 
rfemur 8.332737 5.667775 23.754187 
rtibia 27.681891 
rfoot -14.255025 2.462182 
rtoes -28.424604 
lfemur -37.971242 0.715277 -15.106259 
ltibia 20.073368 
lfoot -9.668397 11.387874 
ltoes -36.475104 
